<svg xmlns="http://www.w3.org/2000/svg" viewBox="0 0 24 24" fill="currentColor">
<path d="M12 2.163c3.204 0 3.584.012 4.85.07 1.366.062 2.633.35 
3.608 1.325.975.975 1.262 2.242 1.324 3.608.058 
1.266.07 1.646.07 4.85s-.012 3.584-.07 
4.85c-.062 1.366-.35 2.633-1.324 3.608-.975.975-2.242 
1.262-3.608 1.324-1.266.058-1.646.07-4.85.07s-3.584-.012-4.85-.07c-1.366-.062-2.633-.35-3.608-1.324-.975-.975-1.262-2.242-1.324-3.608C2.175 
15.747 2.163 15.367 2.163 12s.012-3.584.07-4.85c.062-1.366.35-2.633 
1.324-3.608.975-.975 2.242-1.262 3.608-1.324C8.416 2.175 8.796 
2.163 12 2.163zm0 1.837c-3.17 0-3.548.012-4.795.07-1.064.049-1.64.228-2.022.385-.51.197-.875.433-1.26.818-.385.385-.621.75-.818 
1.26-.157.382-.336.958-.385 2.022-.058 1.247-.07 1.625-.07 
4.795s.012 3.548.07 4.795c.049 1.064.228 1.64.385 2.022.197.51.433.875.818 
1.26.385.385.75.621 1.26.818.382.157.958.336 2.022.385 1.247.058 1.625.07 
4.795.07s3.548-.012 4.795-.07c1.064-.049 1.64-.228 2.022-.385.51-.197.875-.433 
1.26-.818.385-.385.621-.75.818-1.26.157-.382.336-.958.385-2.022.058-1.247.07-1.625.07-4.795s-.012-3.548-.07-4.795c-.049-1.064-.228-1.64-.385-2.022-.197-.51-.433-.875-.818-1.26-.385-.385-.75-.621-1.26-.818-.382-.157-.958-.336-2.022-.385-1.247-.058-1.625-.07-4.795-.07zm0 
3.905a5.935 5.935 0 110 11.87 5.935 5.935 0 010-11.87zm0 
1.837a4.098 4.098 0 100 8.196 4.098 4.098 0 000-8.196zm6.406-2.448a1.44 
1.44 0 110 2.881 1.44 1.44 0 010-2.881z"/>
</svg>